<?xml version="1.0" encoding="utf-8"?>
<!-- Generator: Adobe Illustrator 22.0.0, SVG Export Plug-In . SVG Version: 6.00 Build 0)  -->
<svg version="1.1" id="图层_1" xmlns="http://www.w3.org/2000/svg" xmlns:xlink="http://www.w3.org/1999/xlink" x="0px" y="0px"
	 width="36px" height="36px" viewBox="0 0 36 36" style="enable-background:new 0 0 36 36;" xml:space="preserve">
<g>
	<path style="fill:#FFFFFF;" d="M22.0422974,12h-8.0845947C11.7810059,12,10,13.7809448,10,15.9577026v4.0845947
		C10,22.2189941,11.7810059,24,13.9577026,24h8.0845947C24.2190552,24,26,22.2189941,26,20.0422974v-4.0845947
		C26,13.7809448,24.2190552,12,22.0422974,12z M15.1260376,19.6060791c0.9655151,0,1.4040527-0.9255371,1.4040527-0.9255371
		l1.3896484,0.3352051c0,0.1154175-0.833374,1.9926758-2.7937012,1.9926758c-1.8382568,0-3.0457764-1.5045776-3.0457764-3.0046997
		c0-3.3814697,4.6392822-4.197937,5.8394775-0.9910278c0.0032959,0.008728-1.3345337,0.4248047-1.3407593,0.4124756
		c-0.9239502-1.8478394-3.0910034-0.9456787-3.0910034,0.5785522
		C13.4879761,19.0157471,14.4302979,19.6060791,15.1260376,19.6060791z M21.1260376,19.6060791
		c0.9655151,0,1.4040527-0.9255371,1.4040527-0.9255371l1.3896484,0.3352051c0,0.1154175-0.833374,1.9926758-2.7937012,1.9926758
		c-1.8382568,0-3.0457764-1.5045776-3.0457764-3.0046997c0-3.3814697,4.6392822-4.197937,5.8394775-0.9910278
		c0.0032959,0.008728-1.3345337,0.4248047-1.3407593,0.4124756c-0.9239502-1.8478394-3.0910034-0.9456787-3.0910034,0.5785522
		C19.4879761,19.0157471,20.4302979,19.6060791,21.1260376,19.6060791z"/>
	<g>
		<path style="opacity:0.4;fill:#606060;" d="M13.1850653,22.8149357v-0.0000019
			c-0.220685-0.2206841-0.220685-0.5818043,0-0.8024883l8.8273802-8.8273802c0.2206841-0.220685,0.5818043-0.220685,0.8024883,0
			h0.0000019c0.2206841,0.220685,0.2206841,0.5818043,0,0.8024883l-8.8273821,8.8273821
			C13.7668695,23.0356197,13.4057503,23.0356197,13.1850653,22.8149357z"/>
		<path style="opacity:0.4;fill:#606060;" d="M22.8149338,22.8149357l0.0000019-0.0000019
			c0.2206841-0.2206841,0.2206841-0.5818043,0-0.8024883l-8.8273821-8.8273802c-0.2206841-0.220685-0.5818033-0.220685-0.8024883,0
			l0,0c-0.220685,0.220685-0.220685,0.5818043,0,0.8024883l8.8273802,8.8273821
			C22.2331295,23.0356197,22.5942497,23.0356197,22.8149338,22.8149357z"/>
	</g>
</g>
</svg>
