<?xml version="1.0" encoding="utf-8"?>
<!-- Generator: Adobe Illustrator 22.0.0, SVG Export Plug-In . SVG Version: 6.00 Build 0)  -->
<svg version="1.1" id="图层_1" xmlns="http://www.w3.org/2000/svg" xmlns:xlink="http://www.w3.org/1999/xlink" x="0px" y="0px"
	 width="16px" height="12px" viewBox="0 0 16 12" style="enable-background:new 0 0 16 12;" xml:space="preserve">
<g>
	<path style="fill:#FFFFFF;" d="M12.0422974,0H3.9577026C1.7810059,0,0,1.7809448,0,3.9577026v4.0845947
		C0,10.2189941,1.7810059,12,3.9577026,12h8.0845947C14.2190552,12,16,10.2189941,16,8.0422974V3.9577026
		C16,1.7809448,14.2190552,0,12.0422974,0z M5.1260376,7.6060791c0.9655151,0,1.4040527-0.9255371,1.4040527-0.9255371
		l1.3896484,0.3352051c0,0.1154175-0.833374,1.9926758-2.7937012,1.9926758c-1.8382568,0-3.0457764-1.5045776-3.0457764-3.0046997
		c0-3.3814697,4.6392822-4.197937,5.8394775-0.9910278C7.9230347,5.0214233,6.5852051,5.4375,6.5789795,5.4251709
		C5.6550293,3.5773315,3.4879761,4.4794922,3.4879761,6.0037231C3.4879761,7.0157471,4.4302979,7.6060791,5.1260376,7.6060791z
		 M11.1260376,7.6060791c0.9655151,0,1.4040527-0.9255371,1.4040527-0.9255371l1.3896484,0.3352051
		c0,0.1154175-0.833374,1.9926758-2.7937012,1.9926758c-1.8382568,0-3.0457764-1.5045776-3.0457764-3.0046997
		c0-3.3814697,4.6392822-4.197937,5.8394775-0.9910278c0.0032959,0.008728-1.3345337,0.4248047-1.3407593,0.4124756
		c-0.9239502-1.8478394-3.0910034-0.9456787-3.0910034,0.5785522C9.4879761,7.0157471,10.4302979,7.6060791,11.1260376,7.6060791z"
		/>
	<g>
		<path style="opacity:0.4;fill:#606060;enable-background:new    ;" d="M3.1850653,10.8149357v-0.0000019
			c-0.220685-0.2206841-0.220685-0.5818043,0-0.8024883l8.8273802-8.8273802c0.2206841-0.220685,0.5818043-0.220685,0.8024883,0
			h0.0000019c0.2206841,0.220685,0.2206841,0.5818043,0,0.8024883l-8.8273821,8.8273821
			C3.7668695,11.0356197,3.4057503,11.0356197,3.1850653,10.8149357z"/>
		<path style="opacity:0.4;fill:#606060;enable-background:new    ;" d="M12.8149338,10.8149357l0.0000019-0.0000019
			c0.2206841-0.2206841,0.2206841-0.5818043,0-0.8024883L3.9875536,1.1850653c-0.2206841-0.220685-0.5818033-0.220685-0.8024883,0
			l0,0c-0.220685,0.220685-0.220685,0.5818043,0,0.8024883l8.8273802,8.8273821
			C12.2331295,11.0356197,12.5942497,11.0356197,12.8149338,10.8149357z"/>
	</g>
</g>
</svg>
